<svg viewBox="0 0 162 187" xmlns="http://www.w3.org/2000/svg" fill-rule="evenodd" clip-rule="evenodd" stroke-linejoin="round" stroke-miterlimit="1.414"><path d="M161.951 0v187H0V0h161.951zm-151 52.997v80.863l70.025 40.429 70.025-40.429V52.997L80.976 12.568 10.951 52.997z" fill="#fff"/><path d="M80.976 0l80.975 46.75v93.5L80.976 187 0 140.25v-93.5L80.976 0zm0 1.714l79.431 45.857v91.716l-79.431 45.857-79.431-45.857V47.571L80.976 1.714zm0 9.712l71.014 41v82.005l-71.014 41-71.015-41V52.426l71.014-41h.001zM10.951 52.997v80.863l70.025 40.429 70.025-40.429V52.997L80.976 12.568 10.951 52.997z"/></svg>