<svg xmlns="http://www.w3.org/2000/svg" xmlns:xlink="http://www.w3.org/1999/xlink"><symbol id="bust-solid" viewBox="0 0 28 28"><path d="M14 1.953c3.4 0 6.17 3.358 6.17 7.491 0 2.909-1.374 5.428-3.374 6.668a21.49 21.49 0 013.695.749c.227.059.478.13.767.232l.087.033c1.566.574 3.781 1.883 4.777 4.727.322.921.527 1.987.527 3.258 0 .517-.668.853-1.179.853l-3.898.029-7.572.049V1.953zm-.002 0c-3.4 0-6.171 3.358-6.171 7.491 0 2.909 1.375 5.428 3.374 6.668a21.51 21.51 0 00-3.695.749c-.227.059-.477.13-.766.232-.03.011-.058.023-.088.033-1.566.574-3.781 1.883-4.777 4.727-.322.921-.527 1.987-.527 3.258 0 .517.669.853 1.18.853l3.897.029 7.573.049V1.953z"/></symbol><symbol id="bust" viewBox="0 0 28 28"><path d="M19.473 16.008c2.798.124 5.655 2.401 6.657 5.386.638 1.897.89 4.508-.667 4.57-7.622.05-15.246.159-22.865-.001-2.169-.137-1.225-4.956 1.009-7.38 1.301-1.412 3.142-2.53 5.013-2.575.122-.002.245.014.362.049 1.198.36.998 2.13-.72 2.505-2.281.543-4.042 2.6-4.35 4.948h20.269c-.279-2.45-2.216-4.656-4.74-5.023-.588-.086-1.134-.531-1.188-1.126-.064-.699.413-1.356 1.22-1.353zM13.999 1.953c3.386 0 6.135 3.274 6.135 7.308 0 4.032-2.749 7.306-6.135 7.306-3.385 0-6.134-3.274-6.134-7.306 0-4.034 2.749-7.308 6.134-7.308zm-.001 2.344c2.104 0 3.811 2.239 3.811 4.997 0 2.759-1.707 4.998-3.811 4.998-2.105 0-3.812-2.239-3.812-4.998 0-2.758 1.707-4.997 3.812-4.997z"/></symbol><symbol id="caret-down" viewBox="0 0 28 28"><path d="M12.858 18.814a1.769 1.769 0 01-.097-.097L6.46 12.548a1.495 1.495 0 01.033-2.188l.007-.007a1.707 1.707 0 012.321.039L14 15.462l5.179-5.07a1.707 1.707 0 012.321-.039l.007.007c.644.595.659 1.575.033 2.188l-6.301 6.169A1.697 1.697 0 0114 19.25c-.411 0-.822-.145-1.142-.436z"/></symbol><symbol id="caret-up" viewBox="0 0 28 28"><path d="M15.142 9.186c.039.036.068.066.097.097l6.301 6.169a1.495 1.495 0 01-.033 2.188l-.007.007a1.707 1.707 0 01-2.321-.039L14 12.538l-5.179 5.07a1.707 1.707 0 01-2.321.039l-.007-.007a1.495 1.495 0 01-.033-2.188l6.301-6.169A1.697 1.697 0 0114 8.75c.411 0 .822.145 1.142.436z"/></symbol><symbol id="cart" viewBox="0 0 28 28"><path d="M13.357 21.809a3.274 3.274 0 11-6.404.966c0-.808.293-1.548.78-2.119a3.25 3.25 0 01-.78-2.118c0-.734.242-1.412.652-1.958L2.222 4.26H1.153a1.154 1.154 0 010-2.307h1.824c.476 0 .884.289 1.061.7l1.109 2.54a1.31 1.31 0 01.721-.215h20.07a2.113 2.113 0 011.898 2.928l-.03.075-3.559 8.306a2.102 2.102 0 01-.889 1.006 2.104 2.104 0 01-.943.28h-.001a1.945 1.945 0 01-.216 0h-11.97a.966.966 0 000 1.929h12.104a3.276 3.276 0 013.274 3.273 3.274 3.274 0 11-6.404-.966h-5.845zm-3.129.001a.965.965 0 11-.001 1.93.965.965 0 01.001-1.93zm12.104 0a.965.965 0 11-.001 1.93.965.965 0 01.001-1.93zm3.263-14.525H6.339l3.497 8.004c.129-.015.259-.023.392-.023h11.947l3.42-7.981z"/></symbol><symbol id="circle-minus" viewBox="0 0 28 29"><path d="M14 0C6.268 0 0 6.268 0 14s6.268 14 14 14 14-6.268 14-14S21.732 0 14 0zm0 26.091C7.322 26.091 1.909 20.678 1.909 14 1.909 7.322 7.322 1.909 14 1.909c6.678 0 12.091 5.413 12.091 12.091 0 3.207-1.274 6.282-3.541 8.55A12.094 12.094 0 0114 26.091zm4.773-13.046a.955.955 0 010 1.91H9.227a.955.955 0 010-1.91h9.546z"/></symbol><symbol id="circle-plus" viewBox="0 0 28 29"><path d="M14 0C6.268 0 0 6.268 0 14s6.268 14 14 14 14-6.268 14-14S21.732 0 14 0zm0 26.091C7.322 26.091 1.909 20.678 1.909 14 1.909 7.322 7.322 1.909 14 1.909c6.678 0 12.091 5.413 12.091 12.091 0 3.207-1.274 6.282-3.541 8.55A12.094 12.094 0 0114 26.091zm-.955-13.046V9.227a.955.955 0 011.91 0v3.818h3.818a.955.955 0 010 1.91h-3.818v3.818a.955.955 0 01-1.91 0v-3.818H9.227a.955.955 0 010-1.91h3.818z"/></symbol><symbol id="cross-small" viewBox="0 0 24 24"><path d="M11.97 10.757l3.478-3.479a.88.88 0 011.244 1.244L13.214 12l3.478 3.478a.88.88 0 01-1.244 1.243l-3.478-3.478-3.478 3.478a.88.88 0 01-1.243-1.243L10.727 12 7.249 8.522a.88.88 0 011.243-1.244l3.478 3.479z"/></symbol><symbol id="cross" viewBox="0 0 28 28"><path d="M13.997 12.423l9.597-9.597a1.112 1.112 0 111.574 1.573l-9.598 9.598 9.598 9.598a1.113 1.113 0 01-1.574 1.573l-9.597-9.597-9.598 9.597a1.112 1.112 0 11-1.574-1.573l9.598-9.598-9.598-9.598a1.113 1.113 0 011.574-1.573l9.598 9.597z"/></symbol><symbol id="dropdown-caret" viewBox="0 0 24 24"><path d="M2.976 10H12l-4.569 4-4.455-4z"/></symbol><symbol id="facebook" viewBox="0 0 28 28"><path d="M24.339 2.252H3.661a1.41 1.41 0 00-1.409 1.409v20.678a1.41 1.41 0 001.409 1.409H14.47v-7.519h-2.82V14.47h2.82v-2.82a4.7 4.7 0 014.699-4.699h2.82v3.759h-1.88c-1.037 0-1.88.843-1.88 1.88v1.88h3.76l-.47 3.759h-3.29v7.519h6.11a1.41 1.41 0 001.409-1.409V3.661a1.41 1.41 0 00-1.409-1.409z"/></symbol><symbol id="hamburger" viewBox="0 0 28 28"><path d="M26.647 22.341a1.346 1.346 0 010 2.692H1.346a1.346 1.346 0 010-2.692h25.301zm0-9.69a1.346 1.346 0 010 2.692H1.346a1.346 1.346 0 010-2.692h25.301zm0-9.69a1.346 1.346 0 010 2.692H1.346a1.346 1.346 0 010-2.692h25.301z"/></symbol><symbol id="instagram" viewBox="0 0 28 28"><path d="M20.109 25.748H7.891a5.64 5.64 0 01-5.639-5.639V7.891a5.64 5.64 0 015.639-5.639h12.218a5.64 5.64 0 015.639 5.639v12.218a5.64 5.64 0 01-5.639 5.639zM19.287 14A5.29 5.29 0 0114 19.287 5.29 5.29 0 018.713 14 5.29 5.29 0 0114 8.713 5.29 5.29 0 0119.287 14zm3.524-7.049a1.762 1.762 0 11-3.524 0 1.762 1.762 0 013.524 0z"/></symbol><symbol id="linkedin" viewBox="0 0 28 28"><path d="M24.339 2.252c.779 0 1.409.631 1.409 1.409v20.678a1.41 1.41 0 01-1.409 1.409H3.661a1.41 1.41 0 01-1.409-1.409V3.661c0-.778.63-1.409 1.409-1.409h20.678zM9.587 22.718c.215-.015.278-.065.294-.294V11.421c-.014-.198-.045-.245-.252-.291l-.042-.002H5.919c-.215.015-.277.065-.293.293v11.003c.015.216.065.278.293.294h3.668zm12.837 0c.216-.015.278-.065.294-.294v-6.877a4.482 4.482 0 00-1.295-3.125c-1.521-1.521-4.184-1.672-5.882-.309a3.404 3.404 0 00-.158.135v-.827c-.013-.181-.029-.214-.211-.282a2.739 2.739 0 01-.041-.009l-3.71-.002c-.215.015-.277.065-.293.293v11.003c.015.216.065.278.293.294h3.668c.215-.015.277-.065.294-.294v-6.416c.002-.22.045-.435.135-.636.692-1.529 2.894-.726 2.945.594.027 2.152 0 4.306 0 6.458.015.216.065.278.294.294h3.667zM7.769 5.626c1.624.03 2.807 2.305 1.493 3.627-1.19 1.198-3.879.274-3.619-1.77.129-1.014 1.061-1.861 2.126-1.857z"/></symbol><symbol id="minus" viewBox="0 0 18 18"><path d="M1 7.873h16v2.254H1z"/></symbol><symbol id="plus" viewBox="0 0 18 18"><path d="M17 10.127h-6.873V17H7.873v-6.873H1V7.873h6.873V1h2.254v6.873H17v2.254z"/></symbol><symbol id="spacer" viewBox="0 0 28 28"/><symbol id="tag" viewBox="0 0 16 16"><path d="M14.572 8.61l-7.009 7.009a1.307 1.307 0 01-1.845 0l-.003.004L.381 10.29a1.306 1.306 0 010-1.844l6.968-6.968.025-.025a1.29 1.29 0 01.935-.393h5.54l.829-.829a.774.774 0 111.096 1.096l-.839.837c.007.041.01 5.57.01 5.57a1.292 1.292 0 01-.321.819l-.052.057zM8.409 2.608L1.65 9.368l4.987 4.985 6.759-6.759v-3.89l-1.059 1.059a2.008 2.008 0 01-3.274 2.184 2.007 2.007 0 012.175-3.276L12.3 2.608H8.409zm1.751 2.598a.458.458 0 01.645 0 .458.458 0 010 .645.456.456 0 01-.645-.645z"/></symbol><symbol id="toggle-check" viewBox="0 0 18 18"><path d="M7.853 13a.86.86 0 01-.608-.252L3.231 8.737a.86.86 0 011.216-1.214l3.406 3.403 5.7-5.695a.86.86 0 011.216 1.214l-6.308 6.303a.86.86 0 01-.608.252z"/></symbol><symbol id="toggle-radio" viewBox="0 0 18 18"><path d="M9 .5c4.691 0 8.5 3.809 8.5 8.5s-3.809 8.5-8.5 8.5S.5 13.691.5 9 4.309.5 9 .5zm0 3c3.036 0 5.5 2.464 5.5 5.5s-2.464 5.5-5.5 5.5A5.502 5.502 0 013.5 9c0-3.036 2.464-5.5 5.5-5.5z"/></symbol><symbol id="twitter" viewBox="0 0 28 28"><path d="M25.126 8.373A16.098 16.098 0 018.802 25.196 16.495 16.495 0 010 22.662c.447.043.905.071 1.369.071a11.686 11.686 0 007.138-2.421 5.74 5.74 0 01-5.368-3.933c.356.072.717.11 1.079.112a6.049 6.049 0 001.515-.196 5.69 5.69 0 01-4.609-5.613c.8.434 1.691.673 2.6.7A5.619 5.619 0 011.171 6.68a5.55 5.55 0 01.776-2.842 16.424 16.424 0 0011.836 5.907 5.875 5.875 0 01-.14-1.288 5.701 5.701 0 015.739-5.655 5.796 5.796 0 014.19 1.778 11.353 11.353 0 003.65-1.371 5.687 5.687 0 01-2.52 3.134A11.757 11.757 0 0028 5.448a11.497 11.497 0 01-2.874 2.925z" fill-rule="nonzero"/></symbol></svg>