<svg viewBox="0 0 100 103" xmlns="http://www.w3.org/2000/svg" fill-rule="evenodd" clip-rule="evenodd" stroke-linejoin="round" stroke-miterlimit="1.414"><path d="M100 53.784a12.164 12.164 0 00-10.57-1.092c-6.178 2.249-9.437 9.009-7.413 15.214 1.69-.445 3.535-.079 5.249 1.055 1.841 1.218 3.331 3.197 4.196 5.574.865 2.376.996 4.85.368 6.967-.641 2.162-1.996 3.718-3.816 4.38-1.819.662-3.857.341-5.738-.903-1.841-1.218-3.332-3.197-4.196-5.573-.865-2.377-.996-4.851-.369-6.967.586-1.976 1.768-3.445 3.355-4.189-2.212-6.728 1.317-14.068 8.019-16.507a13.154 13.154 0 0110.722.767 17.668 17.668 0 00-3.833-2.426 17.42 17.42 0 00-13.409-.585 17.411 17.411 0 00-9.681 8.623c1.451.78 2.533 2.192 3.085 4.054.627 2.116.496 4.59-.369 6.966-.864 2.377-2.355 4.356-4.196 5.574a7.915 7.915 0 01-1.658.845c-1.381.502-2.786.528-4.08.058-1.82-.663-3.175-2.218-3.816-4.381-.628-2.116-.497-4.59.368-6.967.865-2.376 2.355-4.355 4.196-5.573 1.812-1.199 3.77-1.54 5.538-.971a18.421 18.421 0 0110.267-9.178A18.647 18.647 0 0187.4 47.46c-5.279-.833-10.711-.321-15.871 1.557-7.986 2.906-14.369 8.734-17.988 16.418.343 7.085-1.111 14.335-4.207 20.974-2.734 5.864-6.536 10.922-11.301 15.035a2.037 2.037 0 01-.63.373 1.768 1.768 0 01-1.36-.052c-.648-.302-1.044-.966-1.034-1.731.088-6.294 1.519-12.458 4.253-18.322 3.096-6.639 7.716-12.413 13.364-16.705 3.733-7.928 10.318-13.941 18.557-16.94 5.016-1.825 10.281-2.399 15.427-1.741-1.199-.408-2.324-.768-3.405-1.114-2.736-.877-5.32-1.705-8.069-2.987-4.594-2.142-9.26-7.27-9.456-7.487l.749-.678c.047.052 4.727 5.194 9.134 7.249 2.691 1.255 5.128 2.036 7.95 2.94 3.505 1.123 7.476 2.396 12.888 4.919a18.763 18.763 0 013.599 2.2v2.416zM48.419 85.982c-2.674 5.733-6.39 10.678-11.046 14.697-.279.241-.616.304-.903.17-.287-.134-.455-.433-.45-.801.085-6.15 1.484-12.175 4.158-17.909 2.803-6.012 6.891-11.284 11.861-15.363L38.913 94.927l.523.244L52.563 67.02c.071 6.43-1.341 12.95-4.144 18.962zm39.25-1.05c-3.166 1.153-7.042-1.482-8.64-5.872-1.598-4.39-.322-8.9 2.844-10.052 3.166-1.153 7.042 1.482 8.64 5.872 1.598 4.391.322 8.9-2.844 10.052zm-.985-4.893a1.66 1.66 0 111.135 3.118 1.66 1.66 0 01-1.135-3.118zm.206.567a1.057 1.057 0 11.722 1.986 1.057 1.057 0 01-.722-1.986zM74.651 68.797c-.791 2.174-2.142 3.977-3.804 5.076-1.607 1.063-3.325 1.346-4.836.796-3.166-1.152-4.442-5.662-2.844-10.052 1.598-4.39 5.474-7.025 8.64-5.872 3.166 1.152 4.442 5.661 2.844 10.052zm-7.359 1.558a1.588 1.588 0 111.084 2.986 1.588 1.588 0 01-1.084-2.986zm.197.543a1.01 1.01 0 11.69 1.9 1.01 1.01 0 01-.69-1.9zM33.282 57.394c-6.249 1.674-11.891 4.54-16.768 8.519-.594.484-.847 1.213-.663 1.904.186.69.77 1.195 1.526 1.318 6.213 1.007 12.532.668 18.782-1.007a45.616 45.616 0 003.829-1.207c5.624-2.046 10.764-5.163 15.035-9.138l.697-.649-.928-.213c-6.954-1.598-14.392-1.435-21.51.473zm2.615 9.759c-6.111 1.637-12.287 1.968-18.358.985-.364-.059-.63-.277-.711-.582-.082-.306.039-.628.324-.86a43.123 43.123 0 0112.572-7.124 45.724 45.724 0 013.82-1.202c6.407-1.717 13.074-1.975 19.393-.789L22.935 65.62l.149.558 30.002-8.039c-4.879 4.186-10.782 7.297-17.189 9.014zm27.227-26.932c-1.519-1.601-3.727-2.725-6.218-3.164-2.49-.439-4.95-.138-6.925.847-2.018 1.007-3.314 2.612-3.651 4.518-.336 1.907.334 3.859 1.886 5.495 1.519 1.602 3.727 2.726 6.217 3.165 2.101.37 4.18.214 5.965-.435.331-.121.651-.258.96-.412 2.018-1.007 3.315-2.612 3.651-4.519.336-1.907-.333-3.858-1.885-5.495zm.89 5.32c-.279 1.583-1.382 2.929-3.107 3.79-1.783.889-4.02 1.158-6.298.756-2.279-.402-4.289-1.419-5.66-2.865-1.326-1.398-1.903-3.04-1.623-4.624.279-1.584 1.382-2.929 3.107-3.79.275-.137.561-.26.857-.368 1.618-.588 3.514-.728 5.441-.388 2.278.402 4.289 1.419 5.66 2.865 1.326 1.398 1.902 3.04 1.623 4.624zM91.993 6.143c-.314-.699-.953-1.133-1.668-1.133s-1.354.434-1.668 1.133c-2.58 5.74-3.889 11.932-3.889 18.401 0 7.37 1.767 14.597 5.111 20.9l.446.841.447-.841c3.343-6.303 5.11-13.53 5.11-20.899 0-6.47-1.309-12.662-3.889-18.402zM49.877 42.412a1.588 1.588 0 111.086 2.985 1.588 1.588 0 01-1.086-2.985zm.198.543a1.01 1.01 0 11.69 1.9 1.01 1.01 0 01-.69-1.9zm40.539.526v-31.06h-.578v31.06c-2.781-5.797-4.257-12.303-4.257-18.937 0-6.326 1.278-12.378 3.8-17.987a.888.888 0 01.496-.492.7.7 0 01.25-.044c.317 0 .596.2.747.536 2.521 5.61 3.8 11.661 3.8 17.987-.001 6.634-1.477 13.14-4.258 18.937zM65.911-.041c-.689.187-1.195.77-1.318 1.526-1.007 6.213-.668 12.532 1.006 18.781 1.908 7.118 5.485 13.642 10.346 18.865l.649.697.213-.928c1.598-6.954 1.435-14.392-.472-21.51-1.675-6.25-4.541-11.891-8.52-16.768-.484-.594-1.213-.848-1.904-.663zm9.447 17.692c1.717 6.408 1.975 13.075.789 19.394L68.108 7.043l-.558.149 8.039 30.002c-4.187-4.879-7.297-10.782-9.014-17.189-1.637-6.111-1.968-12.287-.985-18.358.055-.339.248-.593.521-.692.02-.008.041-.014.062-.02.305-.082.627.04.859.325 3.888 4.766 6.689 10.281 8.326 16.391zM37.735 3.65c-.715-.272-1.474-.127-1.98.379-.505.505-.65 1.264-.378 1.98 2.234 5.883 5.687 11.187 10.262 15.762 5.211 5.21 11.571 9.071 18.392 11.164l.91.279-.279-.91c-2.093-6.821-5.953-13.181-11.165-18.392C48.923 9.337 43.62 5.884 37.735 3.65zm8.618 17.406c-4.473-4.473-7.848-9.657-10.032-15.406-.13-.344-.075-.683.149-.907a.74.74 0 01.268-.171.914.914 0 01.639.022c5.749 2.184 10.933 5.559 15.406 10.032 4.691 4.691 8.247 10.335 10.379 16.401L41.199 9.064l-.408.408 21.963 21.963c-6.065-2.132-11.71-5.688-16.401-10.379z"/></svg>