<svg viewBox="0 0 100 247" xmlns="http://www.w3.org/2000/svg" fill-rule="evenodd" clip-rule="evenodd" stroke-linejoin="round" stroke-miterlimit="1.414"><path d="M0 201.561c4.369.817 8.388 2.927 11.599 6.138a22.333 22.333 0 016.518 15.946c2.115.205 4.067 1.395 5.553 3.403 1.605 2.168 2.489 5.064 2.489 8.154 0 3.091-.884 5.987-2.489 8.155-1.64 2.215-3.847 3.435-6.213 3.435s-4.573-1.22-6.213-3.435c-1.605-2.168-2.489-5.064-2.489-8.155 0-3.09.884-5.986 2.489-8.154 1.507-2.035 3.491-3.23 5.639-3.411a21.1 21.1 0 00-6.157-15.065A20.877 20.877 0 000 202.819v-1.258zm17.457 43.997c-4.118 0-7.468-4.646-7.468-10.356 0-5.709 3.35-10.354 7.468-10.354s7.468 4.645 7.468 10.354c0 5.71-3.35 10.356-7.468 10.356zm.914-5.943a1.941 1.941 0 11-1.94 1.94c0-1.07.869-1.94 1.94-1.94zm0 .706a1.235 1.235 0 11-.001 2.47 1.235 1.235 0 01.001-2.47zM0 198.55A31.348 31.348 0 0120.206 204c8.599 1.092 17.014 4.38 24.346 9.514 6.477 4.535 11.758 10.184 15.696 16.792.479.804.466 1.748-.035 2.463-.414.59-1.086.922-1.824.922-.158 0-.318-.015-.479-.045-7.556-1.441-14.671-4.471-21.148-9.006-7.335-5.137-13.305-11.923-17.272-19.634A30.12 30.12 0 000 199.789v-1.239zm59.201 33.511c-.222.317-.618.457-1.06.372-7.383-1.408-14.338-4.371-20.671-8.805-6.641-4.65-12.119-10.689-15.972-17.536l31.094 21.772.405-.578-31.094-21.772c7.752 1.279 15.301 4.361 21.941 9.011 6.333 4.435 11.495 9.957 15.344 16.413.23.387.235.806.013 1.123zm-34.465-53.828c-1.813-1.521-4.288-2.005-6.968-1.362-2.623.629-5.162 2.28-7.148 4.647-1.987 2.368-3.171 5.154-3.335 7.847-.168 2.751.738 5.104 2.551 6.625 1.29 1.082 2.914 1.639 4.71 1.639.728 0 1.484-.091 2.258-.277 2.623-.629 5.162-2.279 7.148-4.647 1.987-2.367 3.171-5.154 3.335-7.846.167-2.751-.739-5.105-2.551-6.626zm-1.73 13.679c-3.67 4.373-9.222 5.779-12.376 3.132s-2.735-8.358.935-12.733c2.415-2.876 5.643-4.469 8.467-4.469 1.47 0 2.83.431 3.91 1.337 3.154 2.647 2.734 8.359-.936 12.733zM0 146.956c6.423-6.742 14.886-10.04 25.653-10.04a34.866 34.866 0 0117.69 4.81 35.09 35.09 0 0112.438 12.47c7.699 3.967 14.475 9.931 19.605 17.257 4.535 6.477 7.565 13.592 9.006 21.148.175.919-.161 1.802-.876 2.303a2.133 2.133 0 01-1.231.385c-.416 0-.841-.116-1.233-.35-6.607-3.938-12.257-9.219-16.792-15.696-5.141-7.341-8.431-15.769-9.518-24.378a33.848 33.848 0 00-12.026-12.075 33.62 33.62 0 00-17.063-4.64c-10.902 0-19.355 3.494-25.653 10.642v-1.836zm82.808 46.936c-.317.222-.737.217-1.124-.013-6.456-3.849-11.979-9.011-16.413-15.344-4.649-6.641-7.732-14.189-9.011-21.942l21.772 31.095.578-.405-21.772-31.094c6.848 3.854 12.886 9.331 17.536 15.972 4.435 6.333 7.397 13.288 8.805 20.671.084.442-.055.838-.371 1.06zm-44.569-50.151l-.454 1.072c-3.399 8.029-4.781 17.015-3.996 25.988.69 7.876 2.942 15.274 6.695 21.989.424.758 1.164 1.209 1.964 1.209.062 0 .125-.003.187-.008.871-.076 1.602-.673 1.91-1.556 2.53-7.264 3.464-14.942 2.775-22.818-.785-8.972-3.707-17.583-8.448-24.9l-.633-.976zm5.14 48.288c-.148.425-.466.698-.851.732-.385.032-.747-.181-.966-.574-3.668-6.561-5.869-13.793-6.543-21.494-.706-8.076.398-16.154 3.167-23.508L41.495 185l.702-.062-3.308-37.815c4.003 6.761 6.494 14.525 7.2 22.601.675 7.702-.237 15.206-2.71 22.305zm-22.71-12.311a1.94 1.94 0 11-.001 3.881 1.94 1.94 0 01.001-3.881zm0 .706a1.235 1.235 0 11-.001 2.47 1.235 1.235 0 01.001-2.47zM0 166.306a56.264 56.264 0 015.177-4.939c6.057-5.082 12.881-8.721 20.283-10.815.9-.255 1.809.002 2.37.672.562.669.658 1.608.25 2.451-3.347 6.926-8.115 13.014-14.172 18.096A55.662 55.662 0 010 180.33v-1.359a54.248 54.248 0 0013.114-8.145c5.923-4.97 10.584-10.921 13.855-17.688.196-.405.164-.824-.084-1.12a.94.94 0 00-.738-.328c-.114 0-.231.016-.351.05-7.233 2.046-13.903 5.603-19.825 10.573A54.44 54.44 0 000 168.159v-1.853zm0 7.81l20.666-17.341.454.541L0 175.037v-.921zm98.791-31.166c-6.714-3.753-14.113-6.006-21.989-6.695-8.973-.785-17.959.597-25.989 3.996l-1.072.454.977.633c7.318 4.741 15.928 7.663 24.9 8.448 1.675.146 3.341.219 4.997.219 6.127 0 12.102-1.002 17.821-2.994.883-.307 1.48-1.04 1.556-1.91.076-.87-.384-1.695-1.201-2.151zm-.762 2.895c-7.098 2.473-14.602 3.384-22.304 2.711-8.076-.707-15.839-3.198-22.601-7.201l37.815 3.308.062-.703-37.815-3.308c7.354-2.768 15.432-3.873 23.508-3.167 7.702.674 14.934 2.875 21.494 6.543.393.219.607.58.574.965-.034.386-.308.704-.733.852zM51.312 119.05c-1.183-2.049-3.343-3.35-6.081-3.663-2.681-.305-5.63.377-8.307 1.922-2.676 1.545-4.742 3.759-5.817 6.233-1.099 2.528-1.052 5.049.131 7.098 1.183 2.05 3.343 3.351 6.082 3.663.419.048.844.072 1.275.072 2.321 0 4.774-.69 7.031-1.993 2.677-1.545 4.743-3.759 5.818-6.233 1.098-2.528 1.051-5.049-.132-7.099zm-6.303 12.262c-4.945 2.855-10.643 2.277-12.701-1.289-2.059-3.566.289-8.79 5.233-11.645 2.115-1.221 4.367-1.814 6.414-1.814 2.739 0 5.109 1.063 6.288 3.104 2.059 3.566-.289 8.79-5.234 11.644zM0 120.734a55.994 55.994 0 017.518-6.311c6.477-4.535 13.592-7.565 21.148-9.006.919-.175 1.802.16 2.302.876.502.715.515 1.659.036 2.463-3.938 6.608-9.219 12.258-15.696 16.792A55.584 55.584 0 010 133.088v-1.309a54.192 54.192 0 0014.6-7.242c6.333-4.434 11.495-9.956 15.343-16.413.231-.386.236-.807.014-1.123-.179-.256-.472-.396-.811-.396-.081 0-.164.008-.249.024-7.383 1.409-14.338 4.371-20.671 8.805A54.46 54.46 0 000 122.512v-1.778zm0 6.813l23.348-16.349.404.578L0 128.408v-.861zm46.319-8.608a1.94 1.94 0 110 3.88 1.94 1.94 0 010-3.88zm0 .705a1.235 1.235 0 11-.001 2.47 1.235 1.235 0 01.001-2.47zM15.182 95.095l-1.072.453.977.633c7.317 4.742 15.927 7.663 24.899 8.448 1.676.147 3.342.22 4.998.22 6.126 0 12.102-1.002 17.82-2.994.884-.308 1.481-1.04 1.557-1.91.076-.871-.384-1.695-1.201-2.151-6.714-3.754-14.113-6.006-21.99-6.695-8.972-.785-17.958.597-25.988 3.996zM0 102.374A75.786 75.786 0 0117.098 86.5l.691 1.023A74.558 74.558 0 000 104.395v-2.021zm63.13-2.537c-.033.385-.307.704-.732.852-7.098 2.472-14.602 3.384-22.304 2.711-8.076-.707-15.84-3.198-22.601-7.202l37.815 3.309.061-.703-37.814-3.308c7.353-2.769 15.432-3.873 23.508-3.167 7.702.674 14.933 2.875 21.494 6.542.393.22.607.581.573.966zM5.733 90.409l.793-.852c5.94-6.383 10.312-14.355 12.643-23.054 2.047-7.637 2.461-15.36 1.23-22.953-.149-.923-.767-1.638-1.611-1.864-.843-.226-1.735.084-2.327.809C11.599 48.456 8.096 55.35 6.05 62.988c-2.331 8.699-2.531 17.789-.578 26.287l.261 1.134zm1.51-27.102c2-7.467 5.424-14.207 10.175-20.032.226-.277.52-.427.819-.427.077 0 .155.01.232.03.373.1.64.426.711.87 1.203 7.419.798 14.968-1.204 22.435-2.098 7.83-5.899 15.044-11.015 21.008l9.824-36.666-.681-.183-9.825 36.666c-1.449-7.723-1.135-15.87.964-23.701zM18.18 85.798l1.155-.144c8.653-1.071 17.127-4.367 24.504-9.533 6.477-4.536 11.758-10.185 15.696-16.792.479-.805.466-1.748-.035-2.464-.502-.716-1.384-1.051-2.303-.877-7.556 1.441-14.671 4.472-21.148 9.007-7.378 5.165-13.374 12.001-17.34 19.766l-.529 1.037zm18.577-19.791c6.333-4.435 13.288-7.398 20.671-8.805.085-.017.169-.024.249-.024.339 0 .632.139.811.395.222.317.217.737-.014 1.123-3.848 6.457-9.01 11.979-15.343 16.413-6.641 4.65-14.189 7.733-21.942 9.012l31.094-21.773-.404-.578-31.094 21.773c3.853-6.848 9.331-12.887 15.972-17.536zM0 0c1.941 5.675 2.922 11.659 2.922 17.853 0 6.123-.998 12.167-2.922 17.829v-4.377a54.401 54.401 0 001.688-13.452c0-4.651-.566-9.181-1.688-13.545V0z"/></svg>