<svg viewBox="0 0 100 247" xmlns="http://www.w3.org/2000/svg" fill-rule="evenodd" clip-rule="evenodd" stroke-linejoin="round" stroke-miterlimit="1.414"><path d="M100 171.742v1.294a49.922 49.922 0 00-8.273 5.635c-5.435 4.56-9.713 10.021-12.714 16.23a1.057 1.057 0 00-.103.64.817.817 0 00.181.388c.228.272.601.368.998.255 6.638-1.877 12.758-5.141 18.193-9.702a49.433 49.433 0 001.718-1.51v1.525c-.326.288-.656.573-.99.853-5.558 4.664-11.82 8.003-18.612 9.925-.827.233-1.66-.003-2.175-.617-.516-.614-.604-1.476-.23-2.249 3.072-6.356 7.447-11.943 13.006-16.606a51.325 51.325 0 019.001-6.061zm0 6.22v.845l-15.203 12.757-.416-.496L100 177.962zm0-13.618a48.138 48.138 0 00-10.132 3.119l-.125-.288c.146.379.254.771.325 1.173.248 1.403.04 2.93-.625 4.46-.987 2.271-2.882 4.302-5.338 5.72-2.456 1.418-5.163 2.044-7.623 1.763-2.513-.287-4.495-1.481-5.581-3.361-1.085-1.881-1.128-4.195-.12-6.514.986-2.27 2.882-4.302 5.338-5.72 2.456-1.417 5.163-2.044 7.623-1.763 2.513.287 4.495 1.481 5.58 3.361.076.131.146.264.212.399l-.117-.269A49.342 49.342 0 01100 163.191v1.153zm-11.659 2.517c-1.89-3.273-7.118-3.803-11.655-1.184-3.817 2.204-5.947 5.945-5.404 9.026.102.582.3 1.14.601 1.66 1.889 3.272 7.118 3.803 11.655 1.184 2.248-1.298 3.975-3.141 4.866-5.191.861-1.981.839-3.933-.063-5.495zM75.175 173.5a1.78 1.78 0 11.619 3.507 1.78 1.78 0 01-.619-3.507zm.113.638a1.132 1.132 0 11.393 2.23 1.132 1.132 0 01-.393-2.23zM100 75.384v3.083a84.164 84.164 0 00-2.84 9.173c-2.05 8.218-3.939 20.948-1.749 35.945a37.47 37.47 0 01.549-5.186 37.024 37.024 0 014.04-11.485v2.484a36.032 36.032 0 00-2.925 9.198c-1.205 6.835-.429 13.714 2.182 19.97a42.6 42.6 0 00.743 1.612v2.52a36.849 36.849 0 01-1.792-3.702 44.973 44.973 0 01-2.832-8.953l-.018.003c-1.728-9.801-11.107-16.368-20.908-14.64a18.08 18.08 0 00-13.189 10.072c-.995 7.909-4.015 15.65-8.737 22.394-4.162 5.943-9.346 10.789-15.41 14.403a2.259 2.259 0 01-.768.289 1.977 1.977 0 01-1.493-.322c-.656-.459-.964-1.269-.803-2.113 1.322-6.933 4.102-13.463 8.264-19.406 4.703-6.716 10.913-12.184 17.968-15.825a19.21 19.21 0 0113.971-10.607c8.171-1.441 16.066 2.543 19.976 9.356l-2.244-12.73a43.928 43.928 0 00-9.599-20.611 44.221 44.221 0 00-17.96-12.803l.406-1.058a45.356 45.356 0 0118.421 13.132 45.068 45.068 0 019.848 21.144l.218 1.234c-.198-10.054 1.234-18.558 2.751-24.631 1.233-4.93 2.73-9.08 3.93-11.94zm-48.404 71.838c4.266-6.094 7.095-13.021 8.269-20.136l-19.98 28.535-.53-.372 19.98-28.533c-6.284 3.536-11.826 8.563-16.093 14.656-4.069 5.812-6.788 12.194-8.079 18.969-.078.406.049.769.341.973.29.204.675.2 1.03-.012 5.925-3.532 10.992-8.269 15.062-14.08zM100 159.912c-7.142-2.426-13.786-6.585-19.288-12.087-5.13-5.131-9.002-11.078-11.508-17.677-.305-.802-.143-1.653.424-2.22.567-.568 1.418-.73 2.221-.425 6.599 2.506 12.547 6.378 17.677 11.509 4.429 4.429 7.989 9.599 10.474 15.173v3.021c-2.422-6.423-6.274-12.392-11.276-17.393-5.016-5.016-10.829-8.802-17.277-11.251-.386-.146-.766-.084-1.017.167-.203.202-.282.49-.229.796.013.072.034.147.062.221 2.449 6.448 6.234 12.261 11.251 17.278 5.26 5.26 11.591 9.248 18.393 11.64l-24.631-24.631.458-.458L100 157.841v2.071zm-61.618-37.664c-2.215-1.105-4.973-1.443-7.766-.95-2.793.492-5.269 1.753-6.972 3.549-1.741 1.835-2.492 4.023-2.115 6.162.377 2.139 1.832 3.938 4.095 5.068 2.215 1.105 4.973 1.443 7.766.95 2.793-.492 5.269-1.753 6.973-3.549 1.74-1.836 2.491-4.024 2.114-6.163-.377-2.138-1.832-3.937-4.095-5.067zm-5.189 13.663c5.16-.91 8.824-4.677 8.168-8.399-.656-3.721-5.388-6.008-10.548-5.098-5.16.91-8.824 4.677-8.167 8.398.656 3.722 5.387 6.008 10.547 5.099zm-7.094-6.663a1.78 1.78 0 11.617 3.505 1.78 1.78 0 01-.617-3.505zm.112.638a1.133 1.133 0 11.392 2.233 1.133 1.133 0 01-.392-2.233zm41.06-16.804l.896.581-.983.416a48.662 48.662 0 01-10.512 3.094 51.17 51.17 0 01-13.337.573c-7.227-.632-14.017-2.699-20.178-6.143-.75-.419-1.172-1.176-1.102-1.974.07-.799.617-1.471 1.428-1.753 6.666-2.322 13.711-3.178 20.938-2.546 8.234.72 16.135 3.401 22.85 7.752zm-23.837 3.535c7.411.648 14.824-.365 21.572-2.906l-34.701-3.035.057-.646 34.7 3.036c-6.204-3.674-13.328-5.959-20.739-6.607-4.421-.388-8.771-.205-13.003.541a48.254 48.254 0 00-7.465 1.945c-.389.137-.64.428-.672.782-.03.354.166.685.527.887 6.02 3.365 12.657 5.385 19.724 6.003zm39.94-14.629c.59 2.459.146 4.729-1.25 6.393-.993 1.184-2.373 1.946-3.995 2.232a8.855 8.855 0 01-2.084.109c-2.472-.15-5.029-1.237-7.201-3.06-2.173-1.823-3.687-4.152-4.265-6.56-.589-2.46-.145-4.73 1.251-6.394 1.396-1.663 3.554-2.494 6.08-2.341 2.47.15 5.027 1.237 7.2 3.061 2.172 1.822 3.686 4.151 4.264 6.56zm-2.118 5.664c-1.159 1.382-2.986 2.071-5.143 1.939-2.23-.136-4.553-1.129-6.541-2.797-1.988-1.668-3.369-3.783-3.89-5.956-.504-2.101-.144-4.02 1.015-5.401.818-.975 1.968-1.604 3.331-1.844a7.686 7.686 0 011.812-.095c2.231.136 4.553 1.129 6.542 2.797 4.013 3.369 5.303 8.463 2.874 11.357zM68.663 96.688a1.78 1.78 0 11.617 3.505 1.78 1.78 0 01-.617-3.505zm.112.638a1.133 1.133 0 11.393 2.231 1.133 1.133 0 01-.393-2.231zm1.281-12.739c-7.368-3.119-15.615-4.386-23.848-3.666-7.228.631-14.017 2.699-20.178 6.143-.75.419-1.172 1.176-1.102 1.975.07.798.617 1.47 1.428 1.752 6.666 2.322 13.711 3.178 20.939 2.545a51.442 51.442 0 004.464-.587c6.61-1.165 12.894-3.606 18.385-7.165l.896-.58-.984-.417zm-22.86 7.621c-7.068.618-13.954-.219-20.467-2.487-.39-.136-.641-.428-.672-.782-.031-.353.165-.685.526-.886a48.347 48.347 0 0115.272-5.419 51.616 51.616 0 014.452-.585c7.411-.648 14.824.366 21.573 2.906l-34.702 3.036.057.645 34.701-3.035c-6.204 3.673-13.329 5.958-20.74 6.607zm41.058-56.006c-.483-.71-1.273-1.065-2.062-.926-.79.14-1.411.744-1.622 1.576-1.732 6.843-1.971 13.935-.711 21.081 1.435 8.138 4.794 15.776 9.714 22.086l.657.842.329-1.016c2.464-7.612 3.009-15.938 1.574-24.077-1.26-7.145-3.91-13.728-7.879-19.566zm-.3 7.202l6.048 34.304c1.943-6.943 2.307-14.417 1.015-21.743-1.232-6.987-3.822-13.422-7.7-19.126-.232-.342-.579-.508-.928-.447a.874.874 0 00-.205.064c-.249.117-.435.356-.516.674-1.692 6.686-1.926 13.619-.694 20.606 1.292 7.326 4.19 14.224 8.391 20.085l-6.049-34.304.638-.113zm-6.948 21.161c.492 2.793.155 5.551-.95 7.766-1.129 2.263-2.929 3.717-5.068 4.094a6.264 6.264 0 01-2.185-.001c-1.402-.248-2.766-.965-3.976-2.113-1.797-1.704-3.057-4.18-3.549-6.973-.493-2.793-.156-5.551.949-7.766 1.13-2.263 2.93-3.717 5.068-4.094 2.138-.377 4.327.373 6.162 2.114 1.796 1.703 3.056 4.179 3.549 6.973zM62.025 74.977c-3.64-7.126-9.142-13.398-15.912-18.139-5.944-4.161-12.473-6.941-19.407-8.264-.843-.16-1.653.148-2.113.804-.46.657-.472 1.523-.032 2.261 3.613 6.063 8.459 11.248 14.403 15.409 6.77 4.741 14.546 7.766 22.486 8.749l1.06.131-.485-.951zm17.017-3.152c-.965 1.934-2.474 3.171-4.25 3.485-1.777.312-3.618-.334-5.186-1.821-1.621-1.538-2.762-3.792-3.213-6.348-.451-2.555-.149-5.064.848-7.063.965-1.934 2.475-3.171 4.251-3.484a5.108 5.108 0 011.787.002c1.188.21 2.354.828 3.399 1.819 1.62 1.537 2.761 3.791 3.212 6.347.451 2.555.15 5.063-.848 7.063zM25.534 51.058c-.212-.354-.216-.739-.012-1.03a.841.841 0 01.559-.347c.129-.023.268-.022.413.006 6.776 1.292 13.158 4.011 18.969 8.08 6.094 4.266 11.121 9.808 14.657 16.092l-28.533-19.98-.372.531 28.534 19.98c-7.115-1.174-14.041-4.003-20.135-8.27-5.812-4.069-10.549-9.137-14.08-15.062zm45.46 7.545a1.78 1.78 0 11.619 3.505 1.78 1.78 0 01-.619-3.505zm.112.638a1.132 1.132 0 11.394 2.23 1.132 1.132 0 01-.394-2.23z"/></svg>