<svg viewBox="0 0 100 103" xmlns="http://www.w3.org/2000/svg" fill-rule="evenodd" clip-rule="evenodd" stroke-linejoin="round" stroke-miterlimit="1.414"><path d="M0 47.828c8.024 1.538 15.359 2.603 21.018 2.603 5.555 0 11.258-.773 16.629-1.898 13.265-3.118 17.889-15.447 18.794-18.314-1.369-.661-2.455-1.896-3.113-3.564-.787-1.997-.87-4.404-.234-6.778.637-2.375 1.912-4.418 3.592-5.754 1.716-1.364 3.663-1.847 5.481-1.36 1.818.487 3.262 1.879 4.066 3.919.787 1.996.87 4.403.234 6.778-.636 2.374-1.911 4.417-3.591 5.753-1.706 1.356-3.639 1.842-5.447 1.369-.811 2.53-4.121 11.239-12.569 16.199 10.068-2.772 17.84-6.216 19.263-6.863 4.17-5.482 9.778-9.965 16.225-12.972 5.7-2.657 11.692-4.048 17.81-4.134.744-.01 1.388.376 1.683 1.005.294.63.174 1.371-.312 1.935-3.998 4.632-8.915 8.328-14.615 10.986-6.415 2.991-13.415 4.406-20.262 4.096-1.454.665-12.989 5.825-26.713 8.711-.128.03-.25.066-.379.095l-.003-.017c-5.349 1.105-11.014 1.86-16.539 1.86-.454 0-.932-.016-1.405-.029 14.446 4.104 22.466 12.194 24.154 14.045 1.521-.994 3.456-1.172 5.471-.499 2.035.681 3.933 2.165 5.343 4.178 1.41 2.014 2.155 4.304 2.098 6.45-.058 2.191-.939 3.993-2.481 5.073-1.542 1.079-3.536 1.291-5.616.596-2.035-.68-3.932-2.164-5.342-4.178-1.41-2.014-2.155-4.304-2.099-6.449.049-1.847.683-3.418 1.804-4.512-1.662-1.808-9.311-9.462-23.039-13.514a11.714 11.714 0 013.083 3.265c3.483 5.521 1.854 12.847 1.16 15.291 1.519.502 2.791 1.671 3.632 3.358.958 1.92 1.251 4.311.824 6.732-.427 2.421-1.52 4.567-3.077 6.044-1.59 1.509-3.487 2.16-5.341 1.833-1.854-.327-3.414-1.587-4.393-3.549-.958-1.92-1.25-4.311-.823-6.732.427-2.421 1.519-4.568 3.076-6.044 1.512-1.435 3.302-2.094 5.068-1.874.629-2.246 2.228-9.361-1.018-14.502-1.651-2.615-4.35-4.355-8.009-5.222-.889-.169-1.773-.343-2.703-.478l.001-.006C7.84 50.305 4.005 49.66 0 48.896v-1.068zM20.357 88.2c-3.225-.569-5.208-4.671-4.419-9.143.789-4.473 4.054-7.65 7.28-7.081s5.208 4.67 4.42 9.143c-.789 4.473-4.055 7.65-7.281 7.081zm1.27-4.623a1.614 1.614 0 11-.002 3.228 1.614 1.614 0 01.002-3.228zm0 .586a1.028 1.028 0 11-.003 2.055 1.028 1.028 0 01.003-2.055zm32.008-4.267c-2.683 1.879-6.985.38-9.591-3.34-2.605-3.721-2.541-8.276.142-10.155 2.683-1.878 6.985-.38 9.59 3.341 2.605 3.72 2.542 8.275-.141 10.154zm-1.23-4.64a1.614 1.614 0 11-.001 3.229 1.614 1.614 0 01.001-3.229zm0 .587a1.027 1.027 0 110 2.055 1.027 1.027 0 010-2.055zM18.086 61.767c.133-2.188-.588-4.06-2.03-5.27-1.442-1.21-3.41-1.595-5.542-1.083-2.087.5-4.107 1.813-5.687 3.696-1.58 1.883-2.522 4.1-2.652 6.242-.134 2.188.587 4.06 2.029 5.27s3.41 1.595 5.542 1.083c2.087-.5 4.107-1.813 5.687-3.696 1.58-1.883 2.522-4.1 2.653-6.242zM4.835 69.869c-2.509-2.105-2.175-6.648.745-10.128 2.919-3.479 7.336-4.597 9.845-2.491 2.509 2.105 2.175 6.648-.745 10.128-2.919 3.479-7.335 4.597-9.845 2.491zm2.605-3.584a1.614 1.614 0 11-.001 3.229 1.614 1.614 0 01.001-3.229zm0 .587a1.027 1.027 0 110 2.055 1.027 1.027 0 010-2.055zm80.138-2.376c.236-.654.054-1.382-.48-1.901-4.386-4.266-9.607-7.519-15.517-9.671-6.732-2.45-13.921-3.238-20.791-2.28l-.917.128.62.687c4.646 5.15 10.661 9.167 17.392 11.618 5.911 2.151 12.002 3.014 18.104 2.566.742-.055 1.351-.494 1.589-1.147zm-19.356-2.342c-6.06-2.206-11.513-5.718-15.883-10.186l28.373 10.327.193-.527-28.374-10.327c6.22-.614 12.654.201 18.714 2.406 5.779 2.103 10.882 5.284 15.168 9.452.239.233.334.528.261.801l-.019.06c-.105.289-.381.477-.738.503-5.963.438-11.916-.406-17.695-2.509zM48.36 13.437c-.57-.397-1.32-.41-1.96-.029-5.255 3.133-9.75 7.334-13.357 12.485-4.109 5.869-6.732 12.609-7.584 19.493l-.113.919.824-.422c6.177-3.155 11.614-7.924 15.723-13.793 3.608-5.152 6.018-10.811 7.164-16.822.14-.731-.127-1.433-.697-1.831zM20.406 8.221c-.653-.236-1.381-.054-1.9.48-4.266 4.386-7.52 9.607-9.671 15.517-2.45 6.732-3.239 13.921-2.28 20.791l.128.917.687-.62c5.15-4.647 9.167-10.661 11.617-17.393 2.151-5.91 3.015-12.001 2.566-18.103-.054-.743-.494-1.351-1.147-1.589zm20.682 23.306c-3.698 5.282-8.502 9.64-13.949 12.705l17.319-24.734-.46-.321-17.319 24.734c1.018-6.167 3.47-12.172 7.169-17.454 3.527-5.038 7.92-9.144 13.055-12.205.287-.171.596-.186.841-.045a.957.957 0 01.053.034c.252.176.362.492.295.843-1.12 5.873-3.476 11.406-7.004 16.443zm-23.024-3.95c-2.205 6.06-5.718 11.513-10.186 15.883l10.328-28.374-.527-.192L7.351 43.268c-.613-6.22.201-12.654 2.407-18.714 2.103-5.779 5.283-10.882 9.452-15.168.232-.239.527-.334.8-.261.02.005.04.012.06.019.289.105.478.381.504.738.438 5.963-.406 11.916-2.51 17.695zm66.434 8.271c-5.844 2.725-12.183 4.097-18.433 4.028l27.366-12.76-.237-.509-27.366 12.761c3.965-4.832 9.09-8.806 14.935-11.531 5.573-2.599 11.431-3.959 17.409-4.042.333-.005.609.136.75.381l.029.056c.13.279.068.607-.166.878-3.906 4.526-8.713 8.139-14.287 10.738zM61.913 13.712c3.164.848 4.781 5.106 3.605 9.494-1.175 4.387-4.705 7.266-7.869 6.419-3.164-.848-4.781-5.107-3.606-9.494 1.176-4.387 4.706-7.267 7.87-6.419zm-1.527 1.273a1.615 1.615 0 010 3.228 1.614 1.614 0 010-3.228zm0 .587a1.027 1.027 0 110 2.055 1.027 1.027 0 010-2.055z"/></svg>