<svg viewBox="0 0 100 62" xmlns="http://www.w3.org/2000/svg" fill-rule="evenodd" clip-rule="evenodd" stroke-linejoin="round" stroke-miterlimit="1.414"><path d="M57.676 61.812a.692.692 0 00.698-.278l.007-.009a16.81 16.81 0 002.877-6.484c.578-2.719.493-5.524-.246-8.111l-.099-.346-.231.276c-1.727 2.063-2.946 4.591-3.524 7.309-.507 2.387-.51 4.774-.008 7.094a.693.693 0 00.526.549zm-.154-.629a16.44 16.44 0 01.009-6.934 16.553 16.553 0 013.056-6.653l-2.436 11.459.213.046L60.8 47.642c.571 2.356.606 4.872.086 7.32-.497 2.333-1.443 4.466-2.813 6.338l-.004.005c-.081.108-.198.158-.313.134-.117-.025-.204-.121-.234-.256zm20.275-25.929l-.012-.009-.001-.001a4.563 4.563 0 00-.368-.251 4.99 4.99 0 00-6.595 1.241 4.952 4.952 0 00-.999 2.806 4.976 4.976 0 00.713 2.77c2.334 1.306 4.362 3.219 5.866 5.536 1.329 2.047 2.187 4.274 2.55 6.62a.712.712 0 01-.128.545.655.655 0 01-.167.156.695.695 0 01-.76-.016c-1.996-1.286-3.681-2.976-5.01-5.022-1.505-2.318-2.429-4.951-2.673-7.616a5.353 5.353 0 01-.772-2.988 5.327 5.327 0 011.076-3.02 5.318 5.318 0 011.789-1.519c-1.657.514-3.263 1.621-4.482 3.239-1.362 1.807-2.032 3.989-1.855 6.018.646-.08 1.31.143 1.892.64.633.54 1.1 1.35 1.314 2.279.215.929.15 1.862-.182 2.625a2.994 2.994 0 01-.351.608 2.215 2.215 0 01-1.279.856c-.711.165-1.46-.049-2.107-.601-.633-.541-1.1-1.35-1.314-2.28-.215-.929-.15-1.861.182-2.625.314-.72.832-1.219 1.47-1.42-.2-2.136.497-4.433 1.926-6.33.082-.109.166-.216.252-.321-.826.793-1.661 1.757-2.525 2.903l-.505.673c-2.027 2.711-3.638 4.865-6.348 5.327a2.23 2.23 0 01-.473 1.36 3.008 3.008 0 01-.488.505c-.642.53-1.52.849-2.473.899-.952.05-1.859-.176-2.553-.636-.71-.469-1.121-1.13-1.159-1.859-.039-.729.302-1.429.958-1.97.642-.53 1.52-.849 2.473-.899.952-.05 1.859.176 2.553.635.619.41 1.011.965 1.127 1.584 2.544-.449 4.11-2.542 6.078-5.174l.505-.674c1.293-1.716 2.508-3.008 3.715-3.949 1.244-.97 2.498-1.591 3.813-1.888-1.455.09-3.031.373-4.703.673-2.599.467-5.546.995-8.519.827-1.769-.101-3.418-.439-4.972-1.026l-.001.003a25.071 25.071 0 00-.915-.341 7.289 7.289 0 00-3.097-.231c-3.983.56-6.768 4.256-6.209 8.239.104.74.318 1.453.635 2.12 2.211 1.505 4.064 3.588 5.36 6.026a16.919 16.919 0 011.839 5.607c.056.401.098.805.125 1.21a.692.692 0 01-.355.672.692.692 0 01-.756-.081 16.815 16.815 0 01-4.554-5.44c-1.298-2.441-1.988-5.144-1.998-7.821a7.666 7.666 0 01-.673-2.24c-.589-4.191 2.342-8.08 6.533-8.669.252-.035.504-.058.757-.069a17.178 17.178 0 00-.947-.172v.003a46.513 46.513 0 00-.207-.033c-3.057-.425-6 .043-10.465.752-1.464.232-3.124.496-4.989.758-2.688.377-5.378.28-7.962-.252l-.001.003-.107-.026a23.357 23.357 0 01-2.151-.563c-3.606-.97-7.012-1.843-9.89.274.169.262.276.557.321.875.05.354.021.736-.088 1.13-.222.803-.758 1.568-1.51 2.155-.752.587-1.624.923-2.456.944-.851.022-1.566-.283-2.016-.858-.45-.576-.572-1.344-.345-2.164.222-.802.758-1.567 1.51-2.155.752-.587 1.624-.922 2.456-.944.777-.02 1.442.233 1.894.716 2.218-1.638 4.69-1.592 7.311-1.059a23.374 23.374 0 01-7.552-5.569l.283-.255a22.97 22.97 0 0010.188 6.544l.162.044c.643.173 1.305.351 1.966.513 2.573.543 5.254.646 7.934.269 1.862-.261 3.519-.525 4.982-.757 2.034-.323 3.795-.602 5.404-.765-3.106-.176-6.491-.463-9.389-1.683-3.768-1.587-5.89-4.429-6.489-8.689a10.76 10.76 0 013.971-9.938c1.098-2.444 2.829-4.635 5.01-6.339 1.923-1.502 4.067-2.551 6.372-3.117a.692.692 0 01.724.233.658.658 0 01.139.373.76.76 0 01-.088.386c-1.107 2.1-2.644 3.926-4.567 5.429-2.174 1.698-4.711 2.847-7.34 3.323a10.452 10.452 0 00-3.159 4.182 10.385 10.385 0 00-.685 5.414c.579 4.117 2.626 6.862 6.26 8.392 3.156 1.329 6.939 1.531 10.276 1.709 1.607.086 3.124.167 4.355.372v.002c.553.084 1.105.196 1.662.336a17.474 17.474 0 01-1.574-1.059 16.617 16.617 0 01-2.806-2.681 2.127 2.127 0 01-.605.241c-.466.108-.983.065-1.508-.131-.78-.292-1.496-.893-2.015-1.692-.52-.8-.778-1.698-.727-2.529.053-.85.419-1.536 1.031-1.934.613-.398 1.389-.453 2.186-.155.779.291 1.495.892 2.015 1.692.519.8.777 1.698.726 2.529-.045.733-.324 1.345-.794 1.755a16.192 16.192 0 002.727 2.6c1.14.86 2.286 1.513 3.431 2.001.2.07.397.149.592.237 4.589 1.731 9.146.913 13.277.172 3.248-.583 6.146-1.103 8.538-.298a6.95 6.95 0 01-1.871-3.866c-.314-2.231-.335-3.804-.353-5.191-.015-1.118-.028-2.083-.184-3.192-.255-1.816-1.594-4.071-1.607-4.094l.327-.196c.056.095 1.391 2.344 1.657 4.237.16 1.133.173 2.156.188 3.24.005.426.011.87.026 1.346a12.388 12.388 0 012.33-5.368 12.355 12.355 0 018.156-4.825c2.171-1.564 4.763-2.593 7.499-2.978a16.797 16.797 0 017.077.487c.277.08.473.296.511.563a.663.663 0 01-.132.496.764.764 0 01-.204.187c-2.009 1.265-4.252 2.078-6.669 2.418-2.736.384-5.511.109-8.029-.796a11.98 11.98 0 00-7.905 4.678 11.993 11.993 0 00-2.313 5.554 7.03 7.03 0 01.965-1.75 6.947 6.947 0 014.443-2.691c-.011-.7.328-1.369.961-1.89.642-.53 1.52-.85 2.473-.899.952-.05 1.859.175 2.553.635.709.47 1.121 1.13 1.159 1.859.027.519-.137 1.023-.47 1.466a3.048 3.048 0 01-.488.505c-.642.529-1.521.849-2.473.899-.953.05-1.859-.176-2.554-.636-.61-.404-1-.95-1.121-1.559a6.568 6.568 0 00-4.178 2.54 6.568 6.568 0 00-1.268 4.901 6.574 6.574 0 001.978 3.864 3.733 3.733 0 012.776-5.443 3.733 3.733 0 014.182 2.994c.661-.034 1.316.246 1.861.801.584.593.979 1.44 1.111 2.385.133.944-.013 1.867-.41 2.599-.406.747-1.028 1.215-1.752 1.316-.723.102-1.45-.176-2.046-.783-.584-.593-.978-1.44-1.111-2.385-.133-.944.013-1.867.411-2.599.369-.68.918-1.129 1.559-1.28a3.354 3.354 0 00-3.752-2.671 3.351 3.351 0 00-2.849 3.781c.125.886.586 1.67 1.301 2.208l-.016.021a.558.558 0 00.033.019l-.011.019.017.013-.1.133-.095.166-.021-.012-.012.016-.001.001zm-40.283 14.83a16.821 16.821 0 00-1.24 6.985c.011.289.174.53.424.632.25.101.535.039.743-.161 1.714-1.643 3.046-3.623 3.96-5.886 1.041-2.577 1.444-5.354 1.166-8.03l-.038-.357-.274.231c-2.06 1.732-3.699 4.009-4.741 6.586zm12.199.396c1.12 2.107 1.766 4.349 1.919 6.663.01.139-.048.255-.153.311-.106.056-.234.039-.344-.046a16.433 16.433 0 01-4.45-5.318 16.542 16.542 0 01-1.935-7.06l5.499 10.344.193-.102-5.5-10.344a16.564 16.564 0 014.771 5.552zm-8.665 1.032c-.894 2.212-2.196 4.148-3.871 5.753-.1.096-.226.127-.336.082a.278.278 0 01-.131-.108.366.366 0 01-.055-.185 16.432 16.432 0 011.213-6.827 16.562 16.562 0 014.164-6.021l-4.388 10.862.202.082 4.388-10.862a16.551 16.551 0 01-1.186 7.224zm32.158-2.091a16.544 16.544 0 01-2.544-6.864l6.381 9.825.182-.119-6.38-9.825a16.564 16.564 0 015.237 5.116 16.445 16.445 0 012.493 6.47c.021.137-.026.258-.126.323s-.23.059-.347-.016a16.433 16.433 0 01-4.896-4.91zm-8.893-1.636c-.261-1.13-.054-2.221.471-2.917.273-.363.632-.618 1.056-.716 1.238-.286 2.568.879 2.964 2.596.196.85.14 1.698-.16 2.387-.29.666-.776 1.109-1.366 1.245-1.239.286-2.569-.878-2.965-2.595zm2.328.862a.6.6 0 11.167 1.186.6.6 0 01-.167-1.186zm.031.216a.38.38 0 11.107.753.38.38 0 01-.107-.753zm-15.044-2.537c-.022-.427.116-.846.396-1.217.117-.156.259-.303.424-.439.58-.478 1.379-.767 2.251-.813 1.76-.092 3.245.866 3.312 2.135.032.605-.26 1.193-.82 1.656-.58.478-1.379.767-2.251.812-1.76.093-3.245-.865-3.312-2.134zm-25.722-5.271c-1.468 1.949-2.48 4.111-3.006 6.426a.693.693 0 00.246.72.693.693 0 00.759.037c2.081-1.143 3.88-2.711 5.349-4.66 1.673-2.22 2.781-4.798 3.204-7.455l.057-.355-.326.152c-2.437 1.14-4.61 2.915-6.283 5.135zm-2.184 6.849c-.122.067-.251.064-.347-.008a.284.284 0 01-.11-.192.39.39 0 01.007-.139c.514-2.262 1.503-4.375 2.938-6.28a16.566 16.566 0 015.581-4.738l-7.05 9.356.174.131 7.05-9.356a16.558 16.558 0 01-3.016 6.671c-1.436 1.905-3.194 3.438-5.227 4.555zm29.042-2.517a.599.599 0 11.166 1.186.599.599 0 01-.166-1.186zm.03.215a.381.381 0 11.105.755.381.381 0 01-.105-.755zm-15.936-7.007a16.803 16.803 0 00-4.076 5.806.692.692 0 00.117.751.691.691 0 00.741.169 16.803 16.803 0 006.077-3.661c2.032-1.895 3.571-4.242 4.45-6.785l.117-.34-.347.094c-2.598.699-5.046 2.07-7.079 3.966zm2.599 2.787a16.436 16.436 0 01-5.939 3.578c-.132.045-.259.02-.34-.068a.275.275 0 01-.073-.153.369.369 0 01.028-.19c.899-2.139 2.24-4.048 3.985-5.676a16.558 16.558 0 016.318-3.696l-8.567 7.99.148.159 8.568-7.99a16.568 16.568 0 01-4.128 6.046zm-26.675 1.623a.691.691 0 00-.016.76.693.693 0 00.701.295c2.346-.363 4.573-1.221 6.62-2.55 2.331-1.514 4.254-3.558 5.561-5.91l.174-.314-.358.032c-2.68.237-5.329 1.162-7.66 2.676-2.047 1.329-3.737 3.015-5.022 5.011zm7.097-1.815c-2.001 1.3-4.178 2.139-6.47 2.493-.138.021-.258-.026-.323-.126a.255.255 0 01-.042-.112.343.343 0 01.058-.234 16.421 16.421 0 014.909-4.897 16.547 16.547 0 016.865-2.543l-9.825 6.38.118.183 9.825-6.381a16.54 16.54 0 01-5.115 5.237zm29.558-.096c2.28.663 4.661.826 7.077.487 2.753-.387 5.359-1.426 7.538-3.006l.291-.211-.338-.122c-2.53-.918-5.322-1.199-8.074-.812a16.808 16.808 0 00-6.669 2.418.693.693 0 00-.335.683.69.69 0 00.51.563zm13.843-2.691a16.561 16.561 0 00-7.296-.596c-2.363.332-4.556 1.127-6.519 2.364a.386.386 0 00-.103.093.283.283 0 00-.058.214c.017.118.106.212.24.25 2.227.648 4.554.807 6.917.475a16.556 16.556 0 006.85-2.584L51.71 40.25l-.031-.216 11.601-1.631zM13.836 34.29c.782 1.001.289 2.699-1.1 3.784-.687.537-1.48.844-2.231.863-.727.019-1.332-.234-1.706-.712a1.77 1.77 0 01-.355-.852 2.409 2.409 0 01.077-.975c.201-.724.69-1.419 1.378-1.956 1.388-1.085 3.154-1.153 3.937-.152zm-3.973 2.804a.6.6 0 11.165 1.187.6.6 0 01-.165-1.187zm71.848-1.708c-.246-1.745.579-3.308 1.837-3.485 1.258-.177 2.482 1.099 2.727 2.844.245 1.745-.579 3.308-1.838 3.485-1.258.177-2.481-1.099-2.726-2.844zM9.893 37.31a.381.381 0 11.105.755.381.381 0 01-.105-.755zm74.01-.857a.6.6 0 11.165 1.187.6.6 0 01-.165-1.187zm.03.216a.381.381 0 11.105.755.381.381 0 01-.105-.755zm-25.994-7.382c-.123.823.056 1.74.503 2.583.448.842 1.109 1.503 1.86 1.861.222.106.444.182.664.229.542.115 1.068.051 1.527-.193.645-.343 1.069-.995 1.195-1.836.124-.824-.055-1.741-.503-2.583-.448-.842-1.108-1.503-1.86-1.861-.767-.367-1.546-.379-2.191-.036-.644.342-1.069.995-1.195 1.836zm1.374-1.5c.378-.201.816-.252 1.271-.156.191.041.384.107.577.199.679.324 1.278.926 1.688 1.697.827 1.556.587 3.307-.535 3.903-.535.285-1.192.27-1.848-.043-.678-.323-1.277-.926-1.687-1.696-.827-1.556-.588-3.307.534-3.904zm-32.451-1.783a16.803 16.803 0 00-5.806-4.076.692.692 0 00-.751.117.693.693 0 00-.169.741 16.813 16.813 0 003.661 6.076c1.895 2.033 4.242 3.572 6.785 4.451l.34.117-.093-.347c-.699-2.598-2.071-5.046-3.967-7.079zm29.803 6.924c-.003-2.691-.694-5.411-1.999-7.865a16.8 16.8 0 00-4.553-5.44.694.694 0 00-.756-.082.695.695 0 00-.355.673c.157 2.369.818 4.662 1.963 6.817 1.305 2.454 3.173 4.548 5.403 6.055l.297.201v-.359zm-32.589-4.325a16.42 16.42 0 01-3.579-5.94.34.34 0 01-.018-.075.295.295 0 01.086-.265c.087-.081.216-.097.344-.044a16.44 16.44 0 015.675 3.985 16.55 16.55 0 013.696 6.318l-7.989-8.567-.16.148 7.99 8.568a16.564 16.564 0 01-6.045-4.128zm37.539-5.373a.695.695 0 00-.037.759c1.143 2.081 2.711 3.88 4.66 5.349 2.22 1.672 4.798 2.781 7.455 3.204l.355.057-.152-.326c-1.14-2.437-2.915-4.61-5.135-6.283-1.949-1.468-4.111-2.48-6.426-3.005a.694.694 0 00-.72.245zm-5.35 9.072l-5.5-10.344-.192.102 5.5 10.344a16.542 16.542 0 01-4.771-5.552 16.446 16.446 0 01-1.92-6.663.362.362 0 01.048-.213.278.278 0 01.106-.098c.105-.056.234-.039.343.046a16.436 16.436 0 014.451 5.318 16.556 16.556 0 011.935 7.06zm12.266-6.008a16.555 16.555 0 014.738 5.581l-9.356-7.05-.131.174 9.356 7.05a16.552 16.552 0 01-6.671-3.016 16.42 16.42 0 01-4.555-5.227c-.063-.113-.064-.234-.006-.327l.014-.02c.071-.095.195-.134.331-.103 2.262.514 4.375 1.503 6.28 2.938zm-53.075 4.297l-.294-.206c-2.206-1.541-4.83-2.535-7.589-2.874-2.422-.297-4.8-.092-7.067.61a.694.694 0 00-.501.573c-.033.267.1.527.347.676 2.031 1.23 4.288 2.004 6.71 2.302 2.759.339 5.546.009 8.059-.953l.335-.128zm-8.347.703a16.439 16.439 0 01-6.56-2.25.329.329 0 01-.165-.232.248.248 0 01-.001-.072c.015-.118.103-.214.235-.255 2.216-.686 4.54-.886 6.909-.595a16.538 16.538 0 016.893 2.464L2.792 28.926l-.026.216 11.627 1.428a16.56 16.56 0 01-7.284.724zm91.072-2.592a.693.693 0 00-.405-.644 16.811 16.811 0 00-6.885-1.708c-2.778-.097-5.525.474-7.945 1.651l-.323.157.311.18c2.332 1.343 5.033 2.104 7.811 2.201a16.816 16.816 0 006.987-1.224.69.69 0 00.449-.613zM39.485 25.65c-.52-.8-1.235-1.401-2.015-1.692-.797-.298-1.573-.243-2.186.155-.612.397-.978 1.084-1.031 1.933-.051.831.207 1.729.727 2.529.519.8 1.235 1.401 2.015 1.692.525.197 1.042.24 1.508.132.241-.056.469-.151.677-.287.613-.398.979-1.084 1.031-1.933.051-.831-.207-1.729-.726-2.529zm51.273 4.508a16.543 16.543 0 01-7.082-1.854l11.708.409.008-.218-11.708-.409a16.54 16.54 0 017.194-1.355c2.384.083 4.648.645 6.73 1.669.116.057.186.154.192.264v.024c-.004.12-.083.222-.212.275a16.448 16.448 0 01-6.83 1.195zm-51.785-.365c-.509.33-1.164.372-1.845.117-.704-.262-1.353-.81-1.829-1.542-.959-1.478-.873-3.244.193-3.936.169-.11.353-.186.547-.231 1.025-.236 2.319.413 3.126 1.656.96 1.478.873 3.244-.192 3.936zm8.256-.635c-.509.33-1.164.372-1.845.118-.704-.263-1.353-.811-1.829-1.543-.959-1.478-.873-3.243.193-3.935a1.68 1.68 0 01.547-.231c1.025-.237 2.319.413 3.126 1.656.96 1.477.873 3.243-.192 3.935zm12.83-1.006a.599.599 0 11.166 1.186.599.599 0 01-.166-1.186zm.03.215a.382.382 0 11.105.757.382.382 0 01-.105-.757zm-42.916.137l.185.308.151-.325c1.135-2.44 1.658-5.197 1.513-7.973a18.09 18.09 0 00-.148-1.537 16.652 16.652 0 00-1.68-5.317.694.694 0 00-.651-.394.693.693 0 00-.606.46 16.814 16.814 0 00-1.101 7.007c.145 2.776.953 5.463 2.337 7.771zm-.61-14.857c.119-.007.228.063.292.187a16.44 16.44 0 011.786 6.7 16.552 16.552 0 01-1.23 7.216l-.613-11.698-.217.011.613 11.699a16.556 16.556 0 01-1.978-7.049 16.433 16.433 0 011.076-6.85c.051-.129.152-.21.271-.216zm-3.051 13.338l-.093-.347c-.699-2.598-2.071-5.047-3.966-7.079a16.813 16.813 0 00-5.806-4.076.693.693 0 00-.752.117.693.693 0 00-.169.741 16.813 16.813 0 003.661 6.076c1.896 2.033 4.242 3.572 6.786 4.451l.339.117zm-6.846-4.827c-1.627-1.746-2.832-3.744-3.579-5.94a.409.409 0 01-.018-.075.3.3 0 01.086-.265c.087-.081.216-.098.344-.044a16.44 16.44 0 015.675 3.985 16.553 16.553 0 013.697 6.318l-7.99-8.567-.159.148 7.989 8.568a16.564 16.564 0 01-6.045-4.128zm29.178 2.871a.6.6 0 11.166 1.188.6.6 0 01-.166-1.188zm.03.216a.381.381 0 11.107.755.381.381 0 01-.107-.755zm8.227-.851a.6.6 0 11.165 1.187.6.6 0 01-.165-1.187zm.03.216a.381.381 0 11.105.755.381.381 0 01-.105-.755zm36.402-2.28c-.067-1.269 1.311-2.377 3.071-2.469 1.759-.092 3.245.865 3.312 2.134.031.606-.26 1.194-.821 1.657-.579.478-1.379.766-2.25.812-1.76.092-3.246-.865-3.312-2.134zm5.08-.581a.6.6 0 11.168 1.186.6.6 0 01-.168-1.186zm-21.555-1.478c2.358 1.473 5.022 2.352 7.707 2.542l.358.026-.18-.311c-1.348-2.329-3.306-4.339-5.663-5.812-2.07-1.293-4.312-2.112-6.664-2.434a.693.693 0 00-.695.307.692.692 0 00.029.76c1.32 1.973 3.039 3.629 5.108 4.922zm21.586 1.693a.382.382 0 11.104.756.382.382 0 01-.104-.756zm-14.36.222l-9.935-6.208-.116.185 9.935 6.208a16.551 16.551 0 01-6.908-2.423c-2.023-1.265-3.703-2.883-4.994-4.811a.348.348 0 01-.062-.233.274.274 0 01.04-.113c.063-.101.183-.15.321-.131 2.298.314 4.489 1.115 6.513 2.379a16.573 16.573 0 015.206 5.147zm-49.032-6.755c-.576.45-.88 1.165-.858 2.016.021.832.356 1.704.944 2.456.587.752 1.352 1.288 2.154 1.51.82.227 1.589.105 2.164-.345.576-.45.88-1.166.858-2.016a3.29 3.29 0 00-.033-.393c-.099-.709-.415-1.429-.911-2.063-.587-.752-1.352-1.288-2.154-1.51-.82-.227-1.589-.105-2.164.345zm4.018 1.4c1.085 1.388 1.153 3.154.151 3.937-1.001.782-2.698.289-3.783-1.1-.464-.594-.742-1.256-.83-1.882-.118-.837.105-1.607.678-2.055 1.002-.782 2.699-.289 3.784 1.1zm11.03-1.638c-2.643.859-5.03 2.335-6.901 4.269l-.25.258.354.062c2.651.465 5.449.256 8.092-.603a16.823 16.823 0 006.148-3.539.754.754 0 00.215-.333.66.66 0 00-.003-.398.694.694 0 00-.601-.466 16.821 16.821 0 00-7.054.75zm7.292-.166c.037.114-.002.237-.105.33a16.417 16.417 0 01-6.009 3.46 16.557 16.557 0 01-7.289.68l11.141-3.62-.067-.207-11.142 3.62a16.547 16.547 0 016.297-3.735c2.269-.737 4.589-.984 6.895-.733.138.015.243.092.279.205zm31.991 3.414c.725.089 1.447-.201 2.033-.818.089-.095.174-.195.254-.301.431-.572.717-1.305.815-2.104.116-.946-.046-1.867-.456-2.591-.419-.74-1.049-1.197-1.774-1.286-.725-.089-1.446.202-2.032.818-.573.604-.953 1.458-1.069 2.405-.117.946.045 1.867.455 2.591.419.74 1.049 1.197 1.774 1.286zm-1.442-1.473c-.37-.654-.516-1.492-.409-2.358.09-.732.349-1.401.74-1.919.071-.095.147-.185.227-.269.501-.527 1.108-.777 1.71-.703.602.074 1.13.463 1.488 1.096.371.654.516 1.491.41 2.357-.107.866-.45 1.643-.968 2.188-.5.527-1.107.777-1.709.703-.602-.074-1.131-.463-1.489-1.095zm-52.2-.683a.6.6 0 11.167 1.186.6.6 0 01-.167-1.186zm.031.216a.381.381 0 11.105.755.381.381 0 01-.105-.755zm62.668-.2l11.601-1.63-.03-.216-11.601 1.631a16.562 16.562 0 016.849-2.585 16.424 16.424 0 016.918.476c.133.038.223.132.239.25.017.118-.043.233-.161.307-1.963 1.236-4.156 2.031-6.519 2.364a16.548 16.548 0 01-7.296-.597zm-19.259-5.519c1.305 2.454 3.173 4.548 5.403 6.055l.298.201-.001-.359c-.003-2.691-.694-5.411-1.998-7.865-1.146-2.154-2.678-3.985-4.554-5.44a.694.694 0 00-.756-.081.692.692 0 00-.355.672c.157 2.369.818 4.662 1.963 6.817zm15.37 5.21l-.025.358.311-.18a16.747 16.747 0 004.954-4.415c.303-.402.589-.819.858-1.248 1.293-2.07 2.112-4.312 2.434-6.664a.692.692 0 00-.308-.695.69.69 0 00-.759.029c-1.973 1.32-3.629 3.039-4.922 5.108-1.473 2.358-2.352 5.022-2.543 7.707zm-10.07.061l-5.5-10.344-.192.103 5.5 10.343a16.542 16.542 0 01-4.771-5.552c-1.12-2.107-1.766-4.348-1.92-6.663a.345.345 0 01.063-.233.286.286 0 01.091-.078c.105-.056.234-.038.343.047a16.422 16.422 0 014.451 5.317 16.542 16.542 0 011.935 7.06zM25.887.691a16.81 16.81 0 00-.486 7.077c.386 2.753 1.426 5.359 3.005 7.537l.211.291.123-.337c.918-2.53 1.198-5.322.811-8.074a17.444 17.444 0 00-.28-1.518A16.656 16.656 0 0027.133.516a.693.693 0 00-.682-.336.694.694 0 00-.564.511zm56.492 14.82l6.208-9.935-.185-.116-6.208 9.935a16.551 16.551 0 012.423-6.908c.269-.43.554-.846.855-1.245a16.263 16.263 0 013.956-3.749c.115-.077.244-.085.346-.022.101.063.15.183.131.321-.314 2.298-1.115 4.489-2.38 6.513a16.56 16.56 0 01-5.146 5.206zM26.811.719a16.435 16.435 0 012.363 6.519 16.562 16.562 0 01-.596 7.296L26.947 2.933l-.215.03 1.63 11.601a16.546 16.546 0 01-2.584-6.849 16.44 16.44 0 01.475-6.918c.039-.133.132-.223.251-.239.118-.017.233.043.307.161zm50.644 11.668a.599.599 0 11.166 1.186.599.599 0 01-.166-1.186zm.03.215a.381.381 0 11.105.755.381.381 0 01-.105-.755zM44.591 3.58c.073.094.078.223.014.346-1.082 2.052-2.584 3.837-4.464 5.306a16.567 16.567 0 01-6.617 3.132l9.232-7.213-.135-.171-9.231 7.212a16.558 16.558 0 014.639-5.662c1.88-1.469 3.976-2.495 6.229-3.048.135-.033.259.004.333.098z"/></svg>